<?xml version="1.0" standalone="no"?><!DOCTYPE svg PUBLIC "-//W3C//DTD SVG 1.1//EN" "http://www.w3.org/Graphics/SVG/1.1/DTD/svg11.dtd"><svg class="img-fluid" id="outputsvg"  width="200" height="200" viewBox="0 0 2000 2000" version="1.1" xmlns="http://www.w3.org/2000/svg" xmlns:xlink="http://www.w3.org/1999/xlink"><defs xmlns="http://www.w3.org/1999/xhtml"></defs><g id="l5M6qMekfOsFLGh6nvYXGMo" fill="rgb(39,28,46)" style="transform: none;"><g><path id="pYpUkmQQy" d="M903 1970 c-345 -44 -600 -214 -761 -509 -115 -212 -157 -483 -105 -692 79 -313 252 -550 488 -664 163 -79 329 -105 550 -86 300 26 500 113 667 289 207 219 292 556 214 847 -100 373 -392 690 -731 794 -81 25 -217 34 -322 21z m299 -99 c137 -35 276 -118 372 -221 201 -218 332 -529 311 -743 -30 -300 -177 -548 -406 -681 -212 -123 -589 -159 -829 -80 -243 81 -437 303 -526 601 -107 360 107 860 444 1036 186 98 452 134 634 88z"/><path id="pfEIsq5wm" d="M906 1840 c-27 -5 -55 -15 -63 -22 -7 -8 -15 -43 -18 -78 -9 -113 -15 -132 -85 -265 -38 -71 -73 -148 -79 -170 -6 -22 -17 -124 -26 -226 -8 -103 -17 -193 -20 -200 -9 -26 -35 -232 -35 -280 0 -39 4 -51 26 -68 62 -48 88 -11 124 174 26 138 29 150 42 137 6 -6 5 -47 -1 -112 -15 -145 -14 -419 2 -450 15 -31 61 -39 87 -15 26 23 37 78 55 270 9 93 20 176 25 185 5 9 8 -100 7 -261 -2 -260 -1 -278 17 -298 29 -32 78 -28 109 9 27 31 29 41 47 280 6 74 13 160 17 190 6 49 7 52 14 25 3 -16 7 -58 8 -93 1 -77 27 -209 47 -240 22 -34 62 -26 91 17 28 41 28 63 8 366 -17 252 -18 305 -7 305 4 0 23 -36 41 -80 48 -117 99 -163 166 -146 38 10 45 34 30 107 -27 129 -83 258 -234 545 -33 61 -33 64 -34 210 l-2 148 -35 20 c-29 18 -54 21 -155 23 -66 1 -142 -2 -169 -7z m154 -160 c0 -115 -11 -162 -24 -99 -8 42 5 230 15 223 5 -3 9 -59 9 -124z m-130 54 c0 -37 -5 -84 -12 -106 -11 -38 -81 -128 -99 -128 -5 0 2 23 16 51 17 32 30 82 37 137 10 81 24 112 50 112 4 0 8 -30 8 -66z m62 -65 c3 -122 4 -132 26 -149 32 -27 65 -13 74 31 4 19 10 83 14 142 3 60 10 105 14 100 4 -4 10 -57 12 -118 3 -103 6 -114 38 -173 19 -37 56 -84 86 -111 43 -38 63 -68 108 -161 62 -129 141 -354 132 -377 -7 -17 -42 -9 -68 16 -9 9 -32 52 -51 97 -34 81 -34 81 -10 76 26 -5 30 12 11 53 -13 29 -38 33 -45 7 -3 -14 -11 -18 -29 -14 -13 2 -32 -2 -41 -9 -14 -13 -15 -35 -7 -229 13 -344 12 -475 -6 -475 -17 0 -39 70 -38 120 l0 30 7 -30 c3 -16 10 -29 14 -27 4 1 12 2 18 2 7 0 8 14 4 43 -9 54 -22 68 -41 43 -13 -18 -14 -15 -14 33 0 47 2 52 15 41 25 -21 35 1 28 58 -5 42 -9 52 -24 52 -15 0 -19 -8 -19 -37 l-1 -38 -13 38 c-8 20 -19 44 -26 52 -16 19 -46 19 -54 0 -3 -8 -15 -124 -26 -258 -11 -133 -23 -254 -26 -269 -13 -65 -57 -52 -68 21 -6 38 -5 42 8 32 24 -20 36 -4 36 50 0 37 -4 49 -15 49 -9 0 -19 -9 -23 -19 -4 -11 -5 64 -4 167 3 122 0 199 -8 225 -10 35 -14 38 -43 35 -30 -3 -31 -5 -43 -68 -6 -36 -14 -86 -18 -111 -5 -35 -11 -46 -24 -45 -14 1 -17 -8 -17 -49 0 -37 4 -49 14 -47 11 2 12 -9 7 -58 -8 -70 -21 -110 -35 -110 -19 0 -23 117 -11 335 11 205 10 225 -5 249 -11 16 -26 26 -42 26 -26 0 -48 -38 -63 -114 -6 -31 -8 -34 -9 -14 -1 32 -19 46 -33 27 -7 -10 -8 -5 -4 16 3 17 13 104 22 195 8 91 22 192 30 225 20 83 68 158 142 224 86 75 110 126 119 241 3 49 9 90 14 90 4 0 9 -59 11 -131z m230 16 c-1 -55 1 -124 6 -152 5 -29 7 -53 5 -53 -2 0 -15 24 -28 53 -28 63 -39 139 -30 208 6 44 10 50 29 47 20 -3 21 -7 18 -103z m-546 -941 c14 5 15 0 9 -41 -12 -85 -27 -133 -41 -133 -23 0 -21 54 2 77 16 16 19 73 4 73 -5 0 -10 15 -9 33 0 30 1 31 10 8 6 -16 14 -21 25 -17z"/><path id="pZCqHqRk6" d="M970 1410 c-15 -28 -3 -60 21 -60 16 0 19 7 19 40 0 45 -21 55 -40 20z"/><path id="py0g2eXbs" d="M840 1395 c-13 -16 -6 -47 14 -64 10 -8 16 -8 25 3 10 11 9 21 -4 45 -18 36 -18 36 -35 16z"/><path id="pcpmNfwFd" d="M1104 1375 c-15 -22 -15 -28 -3 -40 19 -19 39 -5 42 30 3 37 -18 43 -39 10z"/><path id="plIFEOjCI" d="M775 1340 c-11 -18 6 -50 25 -50 25 0 33 15 20 40 -11 21 -35 27 -45 10z"/><path id="p1APSwh49i" d="M1212 1324 c-25 -17 -29 -39 -8 -47 20 -8 56 21 56 44 0 23 -18 24 -48 3z"/><path id="pEmtdhG9v" d="M895 1297 c-59 -20 -165 -92 -165 -113 0 -19 139 -168 171 -184 52 -27 122 -26 184 4 59 27 155 128 155 162 0 26 -53 71 -128 109 -62 31 -159 41 -217 22z m185 -54 c37 -15 70 -41 70 -55 0 -15 -30 -8 -68 16 -20 14 -49 28 -64 31 -34 9 -90 -10 -129 -42 -26 -22 -33 -24 -56 -14 l-25 12 23 18 c79 60 159 72 249 34z m-20 -60 c14 -10 20 -18 13 -20 -7 -3 -23 3 -35 11 -30 21 -51 20 -73 -4 -19 -21 -59 -28 -53 -8 2 6 20 20 39 30 37 20 67 17 109 -9z m90 -73 c-58 -82 -177 -107 -253 -54 -22 16 -46 39 -54 51 l-15 22 54 -15 c72 -19 172 -16 233 6 28 10 51 19 53 19 2 1 -6 -12 -18 -29z"/><path id="pZY2bm68m" d="M1304 1205 c-9 -23 3 -45 26 -45 23 0 27 29 8 48 -16 16 -27 15 -34 -3z"/><path id="pIlUusT90" d="M758 1069 c-20 -11 -24 -44 -7 -55 6 -3 22 5 36 19 36 36 15 62 -29 36z"/><path id="pOKWh62tW" d="M1190 1041 c0 -26 17 -36 35 -21 18 15 8 40 -16 40 -12 0 -19 -7 -19 -19z"/><path id="pkLvhCPwn" d="M825 980 c-17 -19 -15 -50 4 -50 20 0 54 37 48 53 -9 23 -30 21 -52 -3z"/><path id="pirCZOvfJ" d="M693 974 c-3 -8 -1 -20 5 -26 15 -15 43 8 35 28 -7 19 -32 18 -40 -2z"/><path id="pZS7ec2I" d="M1394 976 c-3 -8 1 -27 10 -43 38 -75 81 -65 48 11 -21 46 -47 60 -58 32z"/><path id="p14RCofQJV" d="M1144 969 c-10 -17 17 -59 38 -59 20 0 23 21 8 51 -12 21 -35 25 -46 8z"/><path id="pMakr8bTJ" d="M904 944 c-4 -17 -2 -29 7 -35 18 -11 39 8 39 37 0 35 -37 33 -46 -2z"/><path id="pyRIyZ47K" d="M1056 954 c-19 -18 -19 -20 -5 -45 8 -16 13 -18 25 -8 16 13 19 55 5 64 -5 3 -17 -2 -25 -11z"/><path id="pkjVKfS79" d="M680 905 c-13 -35 -9 -60 10 -60 10 0 16 12 18 34 5 46 -14 63 -28 26z"/><path id="pstjuMT0N" d="M1171 852 c-6 -11 -6 -24 0 -35 22 -38 59 -5 39 34 -13 24 -26 24 -39 1z"/><path id="plu1qXXSD" d="M835 826 c-9 -45 -3 -71 15 -71 16 0 35 66 26 90 -10 28 -35 16 -41 -19z"/><path id="p12U9IU8Ih" d="M1017 824 c-10 -10 -9 -42 2 -48 18 -11 42 6 39 28 -3 21 -28 33 -41 20z"/><path id="p7FBBTo9E" d="M1017 753 c-4 -3 -7 -26 -7 -50 0 -36 3 -43 20 -43 25 0 37 42 21 76 -11 24 -22 30 -34 17z"/><path id="p1FesAREky" d="M832 698 c-7 -7 -12 -34 -12 -60 0 -40 3 -48 19 -48 15 0 20 10 24 48 6 52 -9 82 -31 60z"/><path id="pXxHU390B" d="M1017 553 c-4 -3 -7 -21 -7 -40 0 -26 4 -33 19 -33 22 0 35 30 26 60 -6 20 -25 26 -38 13z"/></g></g></svg>