<?xml version="1.0" encoding="iso-8859-1"?>
<!-- Generator: Adobe Illustrator 19.0.0, SVG Export Plug-In . SVG Version: 6.00 Build 0)  -->
<svg version="1.1" id="Layer_1" xmlns="http://www.w3.org/2000/svg" xmlns:xlink="http://www.w3.org/1999/xlink" x="0px" y="0px"
	 viewBox="0 0 512.004 512.004" style="enable-background:new 0 0 512.004 512.004;" xml:space="preserve">
<g>
	<g>
		<g>
			<path d="M442.917,304.757H69.082c-4.533,0-8.205,3.673-8.205,8.205s3.673,8.205,8.205,8.205h373.837
				c4.533,0,8.205-3.673,8.205-8.205S447.45,304.757,442.917,304.757z"/>
			<path d="M437.717,252.913h-29.583C392.672,184.907,333.821,135.5,264.206,131.88V97.736
				c16.981-3.761,29.724-18.929,29.724-37.026c0-20.913-17.015-37.927-37.93-37.927c-20.915,0-37.932,17.014-37.932,37.927
				c0,18.097,12.743,33.265,29.727,37.026v34.144c-69.615,3.62-128.467,53.026-143.928,121.033H74.283
				C33.324,252.913,0,286.237,0,327.197v17.034c0,15.871,12.913,28.783,28.784,28.783h3.8v20.948
				c0,15.871,12.913,28.781,28.784,28.781h74.5c25.857,41.125,71.451,66.479,120.135,66.479s94.278-25.354,120.135-66.479h74.5
				c15.871,0,28.784-12.912,28.784-28.781v-20.948h3.799c15.871,0,28.784-12.912,28.784-28.783v-17.034
				C512,286.237,478.676,252.913,437.717,252.913z M234.479,60.71c0-11.865,9.655-21.517,21.521-21.517
				c11.866,0,21.519,9.653,21.519,21.517c0,11.866-9.654,21.519-21.519,21.519C244.133,82.229,234.479,72.575,234.479,60.71z
				 M256,148.069c64.201,0,119.583,43.53,135.254,104.844h-52.167v-21.861c0-15.872-12.913-28.785-28.784-28.785H201.698
				c-15.872,0-28.785,12.913-28.785,28.785v21.861h-52.169C136.417,191.599,191.799,148.069,256,148.069z M322.678,231.053v21.861
				h-0.001H189.325v-21.861c0-6.822,5.551-12.374,12.374-12.374h108.605C317.127,218.678,322.678,224.229,322.678,231.053z
				 M256,472.813c-39.491,0-76.685-18.869-100.219-50.069H356.22C332.685,453.944,295.491,472.813,256,472.813z M483.216,356.603
				h-77.084c-4.533,0-8.205,3.673-8.205,8.205s3.673,8.205,8.205,8.205h56.875v20.948c0,6.821-5.55,12.371-12.373,12.371h-79.122
				H140.487H61.366c-6.822,0-12.373-5.55-12.373-12.371v-20.948h329.785c4.532,0,8.205-3.673,8.205-8.205s-3.673-8.205-8.205-8.205
				H28.784c-6.822,0-12.373-5.55-12.373-12.372v-17.034c0-31.911,25.961-57.874,57.872-57.874h36.277h70.56h149.763h70.558h36.276
				c31.911,0,57.872,25.963,57.872,57.874v17.034h0.001C495.59,351.052,490.04,356.603,483.216,356.603z"/>
		</g>
	</g>
</g>
<g>
</g>
<g>
</g>
<g>
</g>
<g>
</g>
<g>
</g>
<g>
</g>
<g>
</g>
<g>
</g>
<g>
</g>
<g>
</g>
<g>
</g>
<g>
</g>
<g>
</g>
<g>
</g>
<g>
</g>
</svg>
